<svg xmlns="http://www.w3.org/2000/svg" width="28.022" height="28.022" viewBox="0 0 28.022 28.022">
  <defs>
    <style>
      .cls-1 {
        fill: #505050;
      }
    </style>
  </defs>
  <path id="facebook" class="cls-1" d="M4.1,28.022h9.14V18.061H9.961V14.777h3.284v-4.1a4.109,4.109,0,0,1,4.1-4.1h4.1V9.851H18.17a1.644,1.644,0,0,0-1.642,1.642v3.284h4.778l-.547,3.284h-4.23v9.961h7.389a4.109,4.109,0,0,0,4.1-4.1V4.1a4.109,4.109,0,0,0-4.1-4.1H4.1A4.109,4.109,0,0,0,0,4.1V23.917A4.109,4.109,0,0,0,4.1,28.022ZM1.642,4.1A2.466,2.466,0,0,1,4.1,1.642H23.917A2.466,2.466,0,0,1,26.38,4.1V23.917a2.466,2.466,0,0,1-2.463,2.463H18.17V19.7H22.15l1.095-6.568H18.17V11.493H23.1V4.926H17.349A5.753,5.753,0,0,0,11.6,10.672v2.463H8.319V19.7H11.6V26.38H4.1a2.466,2.466,0,0,1-2.463-2.463Zm0,0"/>
</svg>
