<svg id="instagram" xmlns="http://www.w3.org/2000/svg" width="28.022" height="28.022" viewBox="0 0 28.022 28.022">
  <defs>
    <style>
      .cls-1 {
        fill: #505050;
      }
    </style>
  </defs>
  <path id="Path_8" data-name="Path 8" class="cls-1" d="M4.1,28.022H23.917a4.109,4.109,0,0,0,4.1-4.1V4.1a4.109,4.109,0,0,0-4.1-4.1H4.1A4.109,4.109,0,0,0,0,4.1V23.917A4.109,4.109,0,0,0,4.1,28.022ZM1.642,4.1A2.466,2.466,0,0,1,4.1,1.642H23.917A2.466,2.466,0,0,1,26.38,4.1V23.917a2.466,2.466,0,0,1-2.463,2.463H4.1a2.466,2.466,0,0,1-2.463-2.463Zm0,0"/>
  <path id="Path_9" data-name="Path 9" class="cls-1" d="M129.713,138.426A8.713,8.713,0,1,0,121,129.713,8.723,8.723,0,0,0,129.713,138.426Zm0-15.49a6.777,6.777,0,1,1-6.777,6.777A6.784,6.784,0,0,1,129.713,122.936Zm0,0" transform="translate(-115.702 -115.702)"/>
  <path id="Path_10" data-name="Path 10" class="cls-1" d="M362.97,64.941A1.97,1.97,0,1,0,361,62.97,1.973,1.973,0,0,0,362.97,64.941Zm0-2.627a.657.657,0,1,1-.657.657A.658.658,0,0,1,362.97,62.314Zm0,0" transform="translate(-339.59 -58.329)"/>
</svg>
