<svg xmlns="http://www.w3.org/2000/svg" width="28.022" height="28.022" viewBox="0 0 28.022 28.022">
  <defs>
    <style>
      .cls-1 {
        fill: #505050;
      }
    </style>
  </defs>
  <path id="twitter" class="cls-1" d="M28.022,3.743c-1.763.1-1.724.091-1.923.112L27.142.212s-3.259,1.465-4.085,1.727a5.626,5.626,0,0,0-7.7-.756,7.092,7.092,0,0,0-2.563,6.7A13.845,13.845,0,0,1,3.58,1.543L2.807.409,2.229,1.7a9.365,9.365,0,0,0-.683,5.273,8.73,8.73,0,0,0,.6,2.058l-.663-.314-.079,1.354a8.444,8.444,0,0,0,1,4.294,7.564,7.564,0,0,0,.781,1.177l-.343-.064.418,1.551a7.291,7.291,0,0,0,3.173,4.492A48.736,48.736,0,0,1,1.8,23.572L0,24.294,1.66,25.4a15.618,15.618,0,0,0,5.08,2.259c4.913.941,10.444.175,14.168-3.923,3.136-3.451,4.166-8.361,3.952-13.47a3.718,3.718,0,0,1,.488-2.078c.7-1.134,2.669-4.441,2.673-4.448ZM24.035,6.989a6.046,6.046,0,0,0-.814,3.382c.216,5.153-.932,9.15-3.411,11.878-2.9,3.187-7.568,4.438-12.816,3.432a11.049,11.049,0,0,1-2.746-1,39.492,39.492,0,0,0,4.974-2.5l2.868-1.658-3.166-.248a4.392,4.392,0,0,1-3.556-2.475,4.748,4.748,0,0,0,1.205-.246l3.02-1.028-3.045-.911a4.7,4.7,0,0,1-2.77-2.354,6.353,6.353,0,0,1-.6-1.618,6.347,6.347,0,0,0,1.235.241l2.818.341L5,10.1A6.469,6.469,0,0,1,3.217,4.051,14.8,14.8,0,0,0,14.728,10.1a14.375,14.375,0,0,0-.168-1.7c-.76-3.283.906-4.949,1.657-5.514A4.219,4.219,0,0,1,22,3.475a1.291,1.291,0,0,0,1.348.441A9.88,9.88,0,0,0,24.461,3.5l-.708,2.471h.9l-.621,1.015Zm0,0" transform="translate(0 0)"/>
</svg>
